. 
 
http://www.torrenting.com          :     Once & For all ;)


               www . Torrenting . Com 

(((((((((((((= Enjoy No RAR releases =))))))))))))))))))))


...................................NFO:....................................


Complete name                    : Puss.In.Boots.2011.v2.BRRip.x264.AC3-DTRG.mkv
Format                           : Matroska
Format version                   : Version 2
File size                        : 698 MiB
Duration                         : 1h 30mn
Overall bit rate                 : 1 082 Kbps
Encoded date                     : UTC 2012-02-10 18:22:17
Writing application              : mkvmerge v5.2.1 ('A Far Off Place') built on Jan  2 2012 23:21:10
Writing library                  : libebml v1.2.3 + libmatroska v1.3.0

Video
ID                               : 1
Format                           : AVC
Format/Info                      : Advanced Video Codec
Format profile                   : Main@L4.2
Format settings, CABAC           : Yes
Format settings, ReFrames        : 4 frames
Codec ID                         : V_MPEG4/ISO/AVC
Duration                         : 1h 30mn
Bit rate                         : 952 Kbps
Width                            : 720 pixels
Height                           : 304 pixels
Display aspect ratio             : 2.35:1
Frame rate                       : 23.976 fps
Color space                      : YUV
Chroma subsampling               : 4:2:0
Bit depth                        : 8 bits
Scan type                        : Progressive
Bits/(Pixel*Frame)               : 0.181
Stream size                      : 602 MiB (86%)
Writing library                  : x264 core 120 r2146 bcd41db
Language                         : English
Default                          : Yes
Forced                           : No
Source                           : 720p HDC, cheers...

Audio
ID                               : 2
Format                           : AC-3
Format/Info                      : Audio Coding 3
Mode extension                   : CM (complete main)
Codec ID                         : A_AC3
Duration                         : 1h 30mn
Bit rate mode                    : Constant
Bit rate                         : 128 Kbps
Channel(s)                       : 2 channels
Channel positions                : Front: L R
Sampling rate                    : 48.0 KHz
Bit depth                        : 16 bits
Compression mode                 : Lossy
Stream size                      : 82.6 MiB (12%)
Default                          : Yes
Forced                           : No
Source                           : 720p HDC, cheers...

iMDB: http://www.imdb.com/title/tt0448694/

Encoder: Kareemzos..

DTRG bringing the p2p world yet another release, Puss In Boots 2011 v2 BRRip.....

straight forward encode tbh, sharpened and x264'd it...
for all the people with low bandwidth, this ones for you...
left colors untouched because its bluray...
check the sample before downloading because the screens cant tell you the real Q of
the release, enjoy folks.....

[b][i][size=6]SCREENSHOTS:[/b][/i][/size]

[IMG]http://img337.imageshack.us/img337/5448/47182146.png[/IMG]
[IMG]http://img831.imageshack.us/img831/964/72314762.png[/IMG]
[IMG]http://img109.imageshack.us/img109/3535/59217001.png[/IMG]
[IMG]http://img10.imageshack.us/img10/9189/43334412.png[/IMG]
[IMG]http://img40.imageshack.us/img40/70/14767019.png[/IMG]
[IMG]http://img215.imageshack.us/img215/7061/64730565.png[/IMG]
[IMG]http://img851.imageshack.us/img851/8666/33372459.png[/IMG]
[IMG]http://img718.imageshack.us/img718/3981/69043072.png[/IMG]
[IMG]http://img27.imageshack.us/img27/5779/83113770.png[/IMG]
[IMG]http://img141.imageshack.us/img141/898/74396151.png[/IMG]
[IMG]http://img846.imageshack.us/img846/2706/13228719.png[/IMG]
[IMG]http://img18.imageshack.us/img18/3833/58973102.png[/IMG]
[IMG]http://img201.imageshack.us/img201/7383/13059270.png[/IMG]
[IMG]http://img705.imageshack.us/img705/7659/15647985.png[/IMG]
[IMG]http://img718.imageshack.us/img718/2214/97093738.png[/IMG]

Greetz to EMBER, ETRG, BHRG, FYA, 26k, CreWSaDe, RemixHD, LEGiTiMATE.......and maybe many more...........